<?xml version="1.0" encoding="utf-8"?>
<!-- Svg Vector Icons : http://www.onlinewebfonts.com/icon -->
<!DOCTYPE svg PUBLIC "-//W3C//DTD SVG 1.1//EN" "http://www.w3.org/Graphics/SVG/1.1/DTD/svg11.dtd">
<svg version="1.1" xmlns="http://www.w3.org/2000/svg" xmlns:xlink="http://www.w3.org/1999/xlink" x="0px" y="0px" viewBox="0 0 1000 1000" enable-background="new 0 0 1000 1000" xml:space="preserve">
<metadata> Svg Vector Icons : http://www.onlinewebfonts.com/icon </metadata>
<g><g transform="translate(0.000000,76.000000) scale(0.100000,-0.100000)"><path fill="#9b9a9a" d="M4187.7-87.9c-657.6-670.5-735-799.5-735-1289.5v-541.6H1905.3H357.9v-3610.5V-9140H5000h4642.1v2578.9v2579H8094.7H6547.4v1586V-810L5799.5-75c-412.7,399.8-773.7,735-812.4,735C4961.3,660,4600.2,324.7,4187.7-87.9z M5515.8-1403.2v-515.8H5000h-515.8v515.8v515.8H5000h515.8V-1403.2z M2421.1-3466.3v-515.8h-515.8h-515.8v515.8v515.8h515.8h515.8V-3466.3z M5515.8-3466.3v-515.8H5000h-515.8v515.8v515.8H5000h515.8V-3466.3z M2421.1-5529.5v-515.8h-515.8h-515.8v515.8v515.8h515.8h515.8V-5529.5z M5515.8-5529.5v-515.8H5000h-515.8v515.8v515.8H5000h515.8V-5529.5z M8610.5-5529.5v-515.8h-515.8h-515.8v515.8v515.8h515.8h515.8V-5529.5z M2421.1-7592.6v-515.8h-515.8h-515.8v515.8v515.8h515.8h515.8V-7592.6z M5515.8-7592.6v-515.8H5000h-515.8v515.8v515.8H5000h515.8V-7592.6z M8610.5-7592.6v-515.8h-515.8h-515.8v515.8v515.8h515.8h515.8V-7592.6z"/></g></g>
</svg>